<svg width="26" height="24" viewBox="0 0 26 24" fill="none" xmlns="http://www.w3.org/2000/svg">
<g clip-path="url(#clip0_210_4265)">
<path d="M24.8279 8.1816C24.6498 8.2896 21.5048 9.6744 21.5048 12.7536C21.5048 16.3152 25.5066 17.5752 25.6264 17.6064C25.608 17.6832 24.9907 19.332 23.5165 21.012C22.202 22.4904 20.8291 23.9664 18.7407 23.9664C16.6522 23.9664 16.1148 23.0184 13.7038 23.0184C11.3543 23.0184 10.5189 23.9976 8.60861 23.9976C6.69829 23.9976 5.36537 22.6296 3.83281 20.9496C2.05763 18.9768 0.623352 15.912 0.623352 13.0032C0.623352 8.3376 4.50542 5.8632 8.32606 5.8632C10.3562 5.8632 12.0484 6.9048 13.323 6.9048C14.5361 6.9048 16.428 5.8008 18.7376 5.8008C19.6129 5.8008 22.7579 5.8632 24.8279 8.1816ZM17.6412 3.8256C18.5963 2.94 19.272 1.7112 19.272 0.4824C19.272 0.312 19.2536 0.1392 19.2136 0C17.6596 0.0456 15.8107 0.8088 14.6958 1.8192C13.8205 2.5968 13.0036 3.8256 13.0036 5.0712C13.0036 5.2584 13.0435 5.4456 13.0619 5.5056C13.1602 5.52 13.3199 5.5368 13.4796 5.5368C14.874 5.5368 16.6277 4.8072 17.6412 3.8256Z" fill="black"/>
</g>
<defs>
<clipPath id="clip0_210_4265">
<rect width="25" height="24" fill="white" transform="translate(0.623352)"/>
</clipPath>
</defs>
</svg>
