<svg width="58" height="63" viewBox="0 0 58 63" fill="none" xmlns="http://www.w3.org/2000/svg">
<g filter="url(#filter0_f_256_182)">
<rect width="24" height="28" transform="translate(17 17.0352)" fill="#5991FF" fill-opacity="0.5"/>
</g>
<path d="M32.22 22.005C32.3606 21.8645 32.5512 21.7856 32.75 21.7856C32.9487 21.7856 33.1394 21.8645 33.28 22.005L39.78 28.505C39.9204 28.6456 39.9993 28.8362 39.9993 29.035C39.9993 29.2337 39.9204 29.4244 39.78 29.565L33.28 36.065C33.1883 36.1637 33.0717 36.2359 32.9425 36.2739C32.8132 36.3119 32.6761 36.3144 32.5456 36.281C32.4151 36.2476 32.296 36.1797 32.2008 36.0843C32.1057 35.9889 32.038 35.8696 32.005 35.739C31.9716 35.6086 31.9739 35.4716 32.0117 35.3425C32.0496 35.2133 32.1215 35.0967 32.22 35.005L38.19 29.035L32.22 23.065C32.0795 22.9244 32.0007 22.7337 32.0007 22.535C32.0007 22.3362 32.0795 22.1456 32.22 22.005ZM25.78 22.005C25.9204 22.1456 25.9993 22.3362 25.9993 22.535C25.9993 22.7337 25.9204 22.9244 25.78 23.065L19.81 29.035L25.78 35.005C25.8787 35.0967 25.9509 35.2133 25.9889 35.3425C26.0269 35.4718 26.0294 35.6089 25.996 35.7394C25.9626 35.8699 25.8947 35.989 25.7993 36.0842C25.7039 36.1793 25.5846 36.247 25.454 36.28C25.3236 36.3134 25.1866 36.3111 25.0575 36.2732C24.9283 36.2354 24.8117 36.1635 24.72 36.065L18.22 29.565C18.0795 29.4244 18.0007 29.2337 18.0007 29.035C18.0007 28.8362 18.0795 28.6456 18.22 28.505L24.72 22.005C24.8606 21.8645 25.0512 21.7856 25.25 21.7856C25.4487 21.7856 25.6394 21.8645 25.78 22.005Z" fill="#E6EDF3"/>
<defs>
<filter id="filter0_f_256_182" x="0" y="0.0351562" width="58" height="62" filterUnits="userSpaceOnUse" color-interpolation-filters="sRGB">
<feFlood flood-opacity="0" result="BackgroundImageFix"/>
<feBlend mode="normal" in="SourceGraphic" in2="BackgroundImageFix" result="shape"/>
<feGaussianBlur stdDeviation="8.5" result="effect1_foregroundBlur_256_182"/>
</filter>
</defs>
</svg>
