<svg width="61" height="64" viewBox="0 0 61 64" fill="none" xmlns="http://www.w3.org/2000/svg">
<g filter="url(#filter0_f_240_44)">
<path d="M18.6581 30C18.6581 23.3726 24.0307 18 30.6581 18C37.2855 18 42.6581 23.3726 42.6581 30V34C42.6581 40.6274 37.2855 46 30.6581 46C24.0307 46 18.6581 40.6274 18.6581 34V30Z" fill="#5991FF"/>
</g>
<path d="M26.1581 19.75C26.1581 18.784 26.9421 18 27.9081 18H33.4081C34.3741 18 35.1581 18.784 35.1581 19.75V22H39.9081C40.8741 22 41.6581 22.784 41.6581 23.75V38.25C41.6581 38.7141 41.4738 39.1592 41.1456 39.4874C40.8174 39.8156 40.3723 40 39.9081 40H21.4081C20.944 40 20.4989 39.8156 20.1707 39.4874C19.8425 39.1592 19.6581 38.7141 19.6581 38.25V23.75C19.6581 22.784 20.4421 22 21.4081 22H26.1581V19.75ZM21.1581 29.99V38.25C21.1581 38.388 21.2701 38.5 21.4081 38.5H39.9081C39.9744 38.5 40.038 38.4737 40.0849 38.4268C40.1318 38.3799 40.1581 38.3163 40.1581 38.25V29.99C39.3908 30.6431 38.4158 31.0012 37.4081 31H23.9081C22.9005 31.0012 21.9254 30.6431 21.1581 29.99ZM40.1581 26.75V23.75C40.1581 23.6837 40.1318 23.6201 40.0849 23.5732C40.038 23.5263 39.9744 23.5 39.9081 23.5H21.4081C21.3418 23.5 21.2782 23.5263 21.2314 23.5732C21.1845 23.6201 21.1581 23.6837 21.1581 23.75V26.75C21.1581 27.4793 21.4479 28.1788 21.9636 28.6945C22.4793 29.2103 23.1788 29.5 23.9081 29.5H37.4081C38.1375 29.5 38.8369 29.2103 39.3527 28.6945C39.8684 28.1788 40.1581 27.4793 40.1581 26.75ZM33.6581 19.75C33.6581 19.6837 33.6318 19.6201 33.5849 19.5732C33.538 19.5263 33.4744 19.5 33.4081 19.5H27.9081C27.8418 19.5 27.7782 19.5263 27.7313 19.5732C27.6845 19.6201 27.6581 19.6837 27.6581 19.75V22H33.6581V19.75Z" fill="#E6EDF3"/>
<defs>
<filter id="filter0_f_240_44" x="0.658127" y="0" width="60" height="64" filterUnits="userSpaceOnUse" color-interpolation-filters="sRGB">
<feFlood flood-opacity="0" result="BackgroundImageFix"/>
<feBlend mode="normal" in="SourceGraphic" in2="BackgroundImageFix" result="shape"/>
<feGaussianBlur stdDeviation="9" result="effect1_foregroundBlur_240_44"/>
</filter>
</defs>
</svg>
