<svg width="21" height="21" viewBox="0 0 21 21" fill="none" xmlns="http://www.w3.org/2000/svg">
<path d="M7.48819 13.0113L8.82986 13.6113C9.68819 13.9946 10.6715 13.9946 11.5382 13.6113L12.8799 13.0113C14.0799 12.4779 15.1882 13.9279 14.3549 14.9446L11.4715 18.4696C10.7632 19.3363 9.60486 19.3363 8.88819 18.4696L6.0132 14.9446C5.17153 13.9279 6.27986 12.4779 7.48819 13.0113Z" fill="white"/>
<path d="M7.32162 10.7114C7.07162 10.8948 7.10495 11.2781 7.38829 11.4198L9.34662 12.3948C9.80495 12.6281 10.5466 12.6281 10.9966 12.3948L12.955 11.4198C13.23 11.2781 13.2633 10.9031 13.0216 10.7114L10.43 8.76143C10.28 8.65309 10.0799 8.65309 9.92995 8.76143L7.32162 10.7114Z" fill="white"/>
<path d="M15.0799 7.85284L11.6049 3.51951C11.5383 3.43618 11.4633 3.36118 11.3883 3.28618C11.1716 3.07784 10.8633 3.26951 10.8633 3.56951V7.15284C10.8633 7.28618 10.9216 7.41118 11.0299 7.48618L14.4883 10.0862L14.6383 10.1945C14.7883 10.3028 14.9966 10.3028 15.1216 10.1695C15.7049 9.53618 15.6966 8.61951 15.0799 7.85284Z" fill="white"/>
<path d="M5.27156 7.92787L8.72989 3.52787C8.79656 3.44453 8.86323 3.36953 8.93823 3.29453C9.15489 3.0862 9.46323 3.26953 9.46323 3.57787V7.21953C9.46323 7.35287 9.40489 7.46953 9.29656 7.55287L5.85489 10.1945L5.71323 10.3029C5.56323 10.4112 5.35489 10.4112 5.22156 10.2695C4.65489 9.62787 4.66323 8.7112 5.27156 7.92787Z" fill="white"/>
</svg>
