<svg width="165" height="539" viewBox="0 0 165 539" fill="none" xmlns="http://www.w3.org/2000/svg">
<g clip-path="url(#clip0_278_959)">
<path opacity="0.5" d="M0.835938 352.192C4.81534 352.192 8.78877 352.3 12.7602 352.516C16.7317 352.732 20.6912 353.055 24.6408 353.485C28.5923 353.917 32.524 354.454 36.4398 355.099C40.3556 355.743 44.2476 356.493 48.1156 357.348C51.9837 358.205 55.822 359.165 59.6285 360.229C63.4349 361.291 67.2036 362.458 70.9366 363.727C74.6675 364.997 78.3567 366.365 82.0002 367.834C85.6436 369.303 89.2394 370.869 92.7835 372.534C96.3276 374.197 99.816 375.955 103.247 377.809C106.68 379.663 110.049 381.608 113.356 383.644C116.664 385.681 119.904 387.804 123.074 390.017C126.247 392.229 129.343 394.526 132.369 396.907C135.394 399.286 138.34 401.748 141.208 404.289C144.074 406.829 146.859 409.445 149.559 412.135C152.258 414.828 154.87 417.59 157.394 420.423C159.918 423.257 162.347 426.156 164.687 429.122L0.835938 538.817V352.192Z" fill="#4285F4"/>
</g>
<defs>
<clipPath id="clip0_278_959">
<rect width="163.851" height="538.757" fill="white" transform="translate(0.835938 0.0600586)"/>
</clipPath>
</defs>
</svg>
