<svg width="203" height="597" viewBox="0 0 203 597" fill="none" xmlns="http://www.w3.org/2000/svg">
<g clip-path="url(#clip0_278_967)">
<path opacity="0.5" d="M10.2207 596.488C9.0718 593.235 8.02428 589.954 7.07217 586.646C6.12005 583.34 5.26732 580.012 4.51597 576.662C3.76262 573.312 3.11066 569.946 2.55807 566.563C2.00549 563.18 1.55626 559.786 1.20643 556.381C0.85659 552.974 0.610114 549.562 0.463023 546.144C0.317921 542.726 0.27419 539.306 0.331834 535.885C0.391466 532.465 0.550483 529.049 0.812861 525.637C1.07524 522.225 1.43899 518.822 1.90411 515.428C2.36924 512.034 2.93574 508.652 3.60361 505.288C4.26949 501.923 5.03675 498.577 5.90339 495.251C6.77003 491.924 7.73606 488.622 8.79949 485.345C9.86291 482.067 11.0237 478.819 12.28 475.601C13.5382 472.381 14.8918 469.198 16.3389 466.047C17.7859 462.897 19.3264 459.785 20.9603 456.713C22.5922 453.642 24.3176 450.612 26.1303 447.628C27.9451 444.643 29.8454 441.707 31.8351 438.818L202.836 538.817L10.2207 596.488Z" fill="#4285F4"/>
</g>
<defs>
<clipPath id="clip0_278_967">
<rect width="202.529" height="596.428" fill="white" transform="translate(0.307251 0.0600586)"/>
</clipPath>
</defs>
</svg>
