<svg width="204" height="726" viewBox="0 0 204 726" fill="none" xmlns="http://www.w3.org/2000/svg">
<g clip-path="url(#clip0_278_963)">
<path opacity="0.5" d="M203.366 538.817C203.366 541.871 203.284 544.924 203.121 547.974C202.96 551.025 202.716 554.069 202.39 557.11C202.066 560.148 201.66 563.18 201.173 566.2C200.688 569.222 200.122 572.23 199.474 575.226C198.828 578.221 198.102 581.201 197.297 584.163C196.49 587.126 195.608 590.068 194.646 592.991C193.684 595.914 192.644 598.814 191.527 601.69C190.41 604.565 189.217 607.413 187.949 610.236C186.681 613.057 185.337 615.848 183.92 618.61C182.505 621.37 181.014 624.098 179.452 626.792C177.889 629.484 176.255 632.142 174.552 634.761C172.849 637.38 171.076 639.961 169.233 642.5C167.392 645.04 165.484 647.537 163.51 649.989C161.534 652.442 159.497 654.85 157.394 657.211C155.291 659.572 153.126 661.884 150.9 664.146C148.676 666.41 146.39 668.621 144.047 670.78C141.703 672.941 139.304 675.046 136.847 677.097C134.39 679.149 131.882 681.143 129.32 683.079C126.757 685.017 124.146 686.896 121.484 688.715C118.821 690.536 116.111 692.292 113.356 693.99C110.599 695.686 107.801 697.32 104.958 698.89C102.114 700.461 99.2316 701.965 96.3077 703.405C93.3858 704.844 90.4261 706.218 87.4286 707.524C84.4331 708.83 81.4039 710.066 78.3408 711.237C75.2797 712.405 72.1868 713.504 69.0661 714.532C65.9454 715.561 62.7989 716.519 59.6285 717.406C56.4561 718.292 53.2618 719.107 50.0477 719.849C46.8316 720.591 43.5996 721.259 40.3477 721.857C37.0978 722.452 33.832 722.974 30.5542 723.423C27.2745 723.869 23.9868 724.243 20.6872 724.543C17.3896 724.842 14.084 725.067 10.7745 725.218C7.46297 725.368 4.15144 725.443 0.835938 725.443V538.817H203.366Z" fill="#7BA6EF"/>
</g>
<defs>
<clipPath id="clip0_278_963">
<rect width="202.53" height="725.383" fill="white" transform="translate(0.835938 0.0600586)"/>
</clipPath>
</defs>
</svg>
