<svg width="193" height="726" viewBox="0 0 193 726" fill="none" xmlns="http://www.w3.org/2000/svg">
<g clip-path="url(#clip0_278_965)">
<path opacity="0.5" d="M192.836 725.443C190.184 725.443 187.535 725.393 184.885 725.298C182.235 725.203 179.59 725.058 176.946 724.866C174.302 724.675 171.665 724.435 169.031 724.148C166.399 723.862 163.774 723.527 161.154 723.144C158.536 722.761 155.926 722.333 153.326 721.857C150.724 721.38 148.136 720.856 145.556 720.285C142.978 719.715 140.414 719.098 137.862 718.435C135.31 717.772 132.773 717.063 130.251 716.309C127.73 715.552 125.226 714.753 122.737 713.907C120.251 713.061 117.782 712.171 115.333 711.237C112.882 710.301 110.453 709.323 108.046 708.299C105.637 707.277 103.254 706.211 100.89 705.101C98.527 703.993 96.1894 702.841 93.8757 701.646C91.564 700.452 89.2761 699.218 87.0161 697.941C84.7541 696.664 82.5219 695.347 80.3175 693.99C78.1132 692.633 75.9386 691.236 73.7939 689.8C71.6471 688.364 69.5342 686.889 67.4511 685.376C65.3699 683.865 63.3206 682.314 61.3051 680.728C59.2875 679.141 57.3058 677.519 55.3598 675.859C53.4119 674.201 51.5017 672.509 49.6273 670.78C47.7528 669.053 45.9142 667.293 44.1153 665.498C42.3145 663.704 40.5534 661.878 38.832 660.021C37.1106 658.162 35.429 656.274 33.7872 654.356C32.1453 652.436 30.5452 650.489 28.9869 648.513C27.4285 646.537 25.9119 644.531 24.439 642.5C22.9661 640.469 21.5369 638.412 20.1515 636.329C18.7661 634.245 17.4263 632.138 16.1303 630.006C14.8344 627.874 13.5861 625.72 12.3815 623.543C11.179 621.367 10.0221 619.169 8.91098 616.949C7.80184 614.731 6.73841 612.492 5.72468 610.236C4.70896 607.977 3.74293 605.703 2.82461 603.411C1.90827 601.118 1.03964 598.81 0.220703 596.488L192.836 538.817V725.443Z" fill="#46BDC6"/>
</g>
<defs>
<clipPath id="clip0_278_965">
<rect width="192.615" height="725.383" fill="white" transform="translate(0.220703 0.0600586)"/>
</clipPath>
</defs>
</svg>
