<svg width="21" height="36" viewBox="0 0 21 36" fill="none" xmlns="http://www.w3.org/2000/svg">
<path d="M8.00479 27.9502L9.34646 28.5502C10.2048 28.9336 11.1881 28.9336 12.0548 28.5502L13.3965 27.9502C14.5965 27.4169 15.7048 28.8669 14.8715 29.8836L11.9881 33.4086C11.2798 34.2752 10.1215 34.2752 9.40479 33.4086L6.5298 29.8836C5.68813 28.8669 6.79646 27.4169 8.00479 27.9502Z" fill="white"/>
<path d="M7.83822 25.6504C7.58822 25.8337 7.62156 26.2171 7.90489 26.3587L9.86322 27.3337C10.3216 27.5671 11.0632 27.5671 11.5132 27.3337L13.4716 26.3587C13.7466 26.2171 13.7799 25.8421 13.5382 25.6504L10.9466 23.7004C10.7966 23.5921 10.5966 23.5921 10.4466 23.7004L7.83822 25.6504Z" fill="white"/>
<path d="M15.5965 22.7918L12.1215 18.4585C12.0549 18.3751 11.9799 18.3001 11.9049 18.2251C11.6882 18.0168 11.3799 18.2085 11.3799 18.5085V22.0918C11.3799 22.2251 11.4382 22.3501 11.5465 22.4251L15.0049 25.0251L15.1549 25.1335C15.3049 25.2418 15.5132 25.2418 15.6382 25.1085C16.2215 24.4751 16.2132 23.5585 15.5965 22.7918Z" fill="white"/>
<path d="M5.78816 22.8668L9.2465 18.4668C9.31316 18.3835 9.37983 18.3085 9.45483 18.2335C9.6715 18.0252 9.97983 18.2085 9.97983 18.5168V22.1585C9.97983 22.2918 9.9215 22.4085 9.81316 22.4918L6.37149 25.1335L6.22983 25.2418C6.07983 25.3502 5.8715 25.3502 5.73816 25.2085C5.1715 24.5668 5.17983 23.6502 5.78816 22.8668Z" fill="white"/>
</svg>
