<svg width="121" height="328" viewBox="0 0 121 328" fill="none" xmlns="http://www.w3.org/2000/svg">
<g clip-path="url(#clip0_267_444)">
<path d="M65.8281 53.5C65.8281 52.6716 66.4997 52 67.3281 52C68.1566 52 68.8281 52.6716 68.8281 53.5V326.5C68.8281 327.328 68.1566 328 67.3281 328C66.4997 328 65.8281 327.328 65.8281 326.5V53.5Z" fill="url(#paint0_linear_267_444)"/>
<g filter="url(#filter0_f_267_444)">
<path d="M55.3281 12C55.3281 5.37258 60.7007 0 67.3281 0C73.9555 0 79.3281 5.37258 79.3281 12V16C79.3281 22.6274 73.9555 28 67.3281 28C60.7007 28 55.3281 22.6274 55.3281 16V12Z" fill="#5991FF" fill-opacity="0.5"/>
</g>
<path d="M61.3281 9V7.25C61.3281 3.845 63.8311 1 67.3281 1C70.8251 1 73.3281 3.845 73.3281 7.25V9H73.8281C74.4912 9 75.1271 9.26339 75.5959 9.73223C76.0647 10.2011 76.3281 10.837 76.3281 11.5V19.5C76.3281 20.163 76.0647 20.7989 75.5959 21.2678C75.1271 21.7366 74.4912 22 73.8281 22H60.8281C60.1651 22 59.5292 21.7366 59.0604 21.2678C58.5915 20.7989 58.3281 20.163 58.3281 19.5V11.5C58.3281 10.837 58.5915 10.2011 59.0604 9.73223C59.5292 9.26339 60.1651 9 60.8281 9H61.3281ZM59.8281 11.5V19.5C59.8281 19.7652 59.9335 20.0196 60.121 20.2071C60.3086 20.3946 60.5629 20.5 60.8281 20.5H73.8281C74.0933 20.5 74.3477 20.3946 74.5352 20.2071C74.7228 20.0196 74.8281 19.7652 74.8281 19.5V11.5C74.8281 11.2348 74.7228 10.9804 74.5352 10.7929C74.3477 10.6054 74.0933 10.5 73.8281 10.5H60.8281C60.5629 10.5 60.3086 10.6054 60.121 10.7929C59.9335 10.9804 59.8281 11.2348 59.8281 11.5ZM62.8281 7.25V9H71.8281V7.25C71.8281 4.58 69.9061 2.5 67.3281 2.5C64.7501 2.5 62.8281 4.58 62.8281 7.25Z" fill="#E6EDF3"/>
<g filter="url(#filter1_f_267_444)">
<path d="M55.3281 12C55.3281 5.37258 60.7007 0 67.3281 0C73.9555 0 79.3281 5.37258 79.3281 12V16C79.3281 22.6274 73.9555 28 67.3281 28C60.7007 28 55.3281 22.6274 55.3281 16V12Z" fill="#5991FF" fill-opacity="0.5"/>
</g>
<path d="M61.3281 9V7.25C61.3281 3.845 63.8311 1 67.3281 1C70.8251 1 73.3281 3.845 73.3281 7.25V9H73.8281C74.4912 9 75.1271 9.26339 75.5959 9.73223C76.0647 10.2011 76.3281 10.837 76.3281 11.5V19.5C76.3281 20.163 76.0647 20.7989 75.5959 21.2678C75.1271 21.7366 74.4912 22 73.8281 22H60.8281C60.1651 22 59.5292 21.7366 59.0604 21.2678C58.5915 20.7989 58.3281 20.163 58.3281 19.5V11.5C58.3281 10.837 58.5915 10.2011 59.0604 9.73223C59.5292 9.26339 60.1651 9 60.8281 9H61.3281ZM59.8281 11.5V19.5C59.8281 19.7652 59.9335 20.0196 60.121 20.2071C60.3086 20.3946 60.5629 20.5 60.8281 20.5H73.8281C74.0933 20.5 74.3477 20.3946 74.5352 20.2071C74.7228 20.0196 74.8281 19.7652 74.8281 19.5V11.5C74.8281 11.2348 74.7228 10.9804 74.5352 10.7929C74.3477 10.6054 74.0933 10.5 73.8281 10.5H60.8281C60.5629 10.5 60.3086 10.6054 60.121 10.7929C59.9335 10.9804 59.8281 11.2348 59.8281 11.5ZM62.8281 7.25V9H71.8281V7.25C71.8281 4.58 69.9061 2.5 67.3281 2.5C64.7501 2.5 62.8281 4.58 62.8281 7.25Z" fill="#E6EDF3"/>
</g>
<defs>
<filter id="filter0_f_267_444" x="37.3281" y="-18" width="60" height="64" filterUnits="userSpaceOnUse" color-interpolation-filters="sRGB">
<feFlood flood-opacity="0" result="BackgroundImageFix"/>
<feBlend mode="normal" in="SourceGraphic" in2="BackgroundImageFix" result="shape"/>
<feGaussianBlur stdDeviation="9" result="effect1_foregroundBlur_267_444"/>
</filter>
<filter id="filter1_f_267_444" x="37.3281" y="-18" width="60" height="64" filterUnits="userSpaceOnUse" color-interpolation-filters="sRGB">
<feFlood flood-opacity="0" result="BackgroundImageFix"/>
<feBlend mode="normal" in="SourceGraphic" in2="BackgroundImageFix" result="shape"/>
<feGaussianBlur stdDeviation="9" result="effect1_foregroundBlur_267_444"/>
</filter>
<linearGradient id="paint0_linear_267_444" x1="67.3281" y1="52" x2="67.3281" y2="328" gradientUnits="userSpaceOnUse">
<stop offset="0.4" stop-color="#5991FF"/>
<stop offset="1" stop-opacity="0"/>
</linearGradient>
<clipPath id="clip0_267_444">
<rect width="120.66" height="328" fill="white"/>
</clipPath>
</defs>
</svg>
