<svg width="129" height="534" viewBox="0 0 129 534" fill="none" xmlns="http://www.w3.org/2000/svg">
<path d="M74 301.5C74 300.672 74.6716 300 75.5 300C76.3284 300 77 300.672 77 301.5V472.5C77 473.328 76.3284 474 75.5 474C74.6716 474 74 473.328 74 472.5V301.5Z" fill="url(#paint0_linear_267_448)"/>
<g filter="url(#filter0_f_267_448)">
<path d="M63.3281 267.516C63.3281 260.888 68.7007 255.516 75.3281 255.516C81.9555 255.516 87.3281 260.888 87.3281 267.516V271.516C87.3281 278.143 81.9555 283.516 75.3281 283.516C68.7007 283.516 63.3281 278.143 63.3281 271.516V267.516Z" fill="#2DA44E" fill-opacity="0.7"/>
</g>
<path d="M78.5481 260.486C78.6887 260.345 78.8794 260.266 79.0781 260.266C79.2769 260.266 79.4675 260.345 79.6081 260.486L86.1081 266.986C86.2486 267.126 86.3275 267.317 86.3275 267.516C86.3275 267.714 86.2486 267.905 86.1081 268.046L79.6081 274.546C79.5164 274.644 79.3998 274.716 79.2706 274.754C79.1413 274.793 79.0042 274.795 78.8737 274.762C78.7432 274.728 78.6241 274.66 78.5289 274.565C78.4338 274.469 78.3662 274.35 78.3331 274.22C78.2997 274.089 78.302 273.952 78.3399 273.823C78.3777 273.694 78.4496 273.577 78.5481 273.486L84.5181 267.516L78.5481 261.546C78.4077 261.405 78.3288 261.214 78.3288 261.016C78.3288 260.817 78.4077 260.626 78.5481 260.486ZM72.1081 260.486C72.2486 260.626 72.3275 260.817 72.3275 261.016C72.3275 261.214 72.2486 261.405 72.1081 261.546L66.1381 267.516L72.1081 273.486C72.2068 273.577 72.279 273.694 72.317 273.823C72.355 273.952 72.3575 274.089 72.3241 274.22C72.2907 274.351 72.2228 274.47 72.1274 274.565C72.032 274.66 71.9127 274.728 71.7821 274.761C71.6517 274.794 71.5148 274.792 71.3856 274.754C71.2564 274.716 71.1399 274.644 71.0481 274.546L64.5481 268.046C64.4077 267.905 64.3288 267.714 64.3288 267.516C64.3288 267.317 64.4077 267.126 64.5481 266.986L71.0481 260.486C71.1887 260.345 71.3794 260.266 71.5781 260.266C71.7769 260.266 71.9675 260.345 72.1081 260.486Z" fill="#E6EDF3"/>
<path d="M73.8281 22.5C73.8281 21.6716 74.4997 21 75.3281 21C76.1566 21 76.8281 21.6716 76.8281 22.5V238.02C76.8281 238.848 76.1566 239.52 75.3281 239.52C74.4997 239.52 73.8281 238.848 73.8281 238.02V22.5Z" fill="url(#paint1_linear_267_448)"/>
<path d="M70.3281 9C70.3281 6.23858 72.5667 4 75.3281 4C78.0895 4 80.3281 6.23858 80.3281 9C80.3281 11.7614 78.0895 14 75.3281 14C72.5667 14 70.3281 11.7614 70.3281 9Z" stroke="white" stroke-opacity="0.3" stroke-width="2"/>
<defs>
<filter id="filter0_f_267_448" x="45.3281" y="237.516" width="60" height="64" filterUnits="userSpaceOnUse" color-interpolation-filters="sRGB">
<feFlood flood-opacity="0" result="BackgroundImageFix"/>
<feBlend mode="normal" in="SourceGraphic" in2="BackgroundImageFix" result="shape"/>
<feGaussianBlur stdDeviation="9" result="effect1_foregroundBlur_267_448"/>
</filter>
<linearGradient id="paint0_linear_267_448" x1="75.5" y1="300" x2="75.5" y2="474" gradientUnits="userSpaceOnUse">
<stop stop-color="#5991FF"/>
<stop offset="0.8" stop-color="#2DA44E"/>
<stop offset="1" stop-color="#3FB950"/>
</linearGradient>
<linearGradient id="paint1_linear_267_448" x1="75.3281" y1="21" x2="75.3281" y2="239.52" gradientUnits="userSpaceOnUse">
<stop stop-opacity="0"/>
<stop offset="0.3" stop-color="#5991FF"/>
</linearGradient>
</defs>
</svg>
