<svg width="21" height="37" viewBox="0 0 21 37" fill="none" xmlns="http://www.w3.org/2000/svg">
<path d="M7.43302 28.3038L8.77468 28.9038C9.63302 29.2871 10.6164 29.2871 11.483 28.9038L12.8247 28.3038C14.0247 27.7704 15.133 29.2204 14.2997 30.2371L11.4164 33.7621C10.708 34.6288 9.54968 34.6288 8.83302 33.7621L5.95802 30.2371C5.11635 29.2204 6.22468 27.7704 7.43302 28.3038Z" fill="white"/>
<path d="M7.26635 26.0039C7.01635 26.1872 7.04969 26.5706 7.33302 26.7122L9.29135 27.6872C9.74969 27.9206 10.4914 27.9206 10.9414 27.6872L12.8997 26.7122C13.1747 26.5706 13.208 26.1956 12.9664 26.0039L10.3747 24.0539C10.2247 23.9456 10.0247 23.9456 9.87468 24.0539L7.26635 26.0039Z" fill="white"/>
<path d="M15.0247 23.1453L11.5497 18.812C11.483 18.7287 11.408 18.6537 11.333 18.5787C11.1164 18.3703 10.808 18.562 10.808 18.862V22.4453C10.808 22.5787 10.8664 22.7037 10.9747 22.7787L14.433 25.3787L14.583 25.487C14.733 25.5953 14.9414 25.5953 15.0664 25.462C15.6497 24.8287 15.6414 23.912 15.0247 23.1453Z" fill="white"/>
<path d="M5.21638 23.2203L8.67472 18.8203C8.74138 18.737 8.80805 18.662 8.88305 18.587C9.09972 18.3787 9.40805 18.562 9.40805 18.8703V22.512C9.40805 22.6453 9.34972 22.762 9.24139 22.8453L5.79971 25.487L5.65805 25.5953C5.50805 25.7037 5.29972 25.7037 5.16639 25.562C4.59972 24.9203 4.60805 24.0037 5.21638 23.2203Z" fill="white"/>
</svg>
