<svg width="157" height="539" viewBox="0 0 157 539" fill="none" xmlns="http://www.w3.org/2000/svg">
<g clip-path="url(#clip0_278_971)">
<path opacity="0.5" d="M0.784668 419.857C4.16577 416.091 7.70389 412.452 11.3951 408.943C15.0863 405.431 18.9225 402.059 22.9019 398.828C26.8813 395.596 30.9919 392.511 35.2337 389.575C39.4755 386.641 43.8365 383.864 48.3168 381.245C52.7951 378.626 57.3788 376.171 62.0678 373.884C66.7548 371.598 71.5333 369.482 76.4032 367.541C81.2711 365.599 86.2145 363.837 91.2335 362.255C96.2525 360.67 101.331 359.271 106.469 358.055L156.836 538.817L0.784668 419.857Z" fill="#8FE0E6"/>
</g>
<defs>
<clipPath id="clip0_278_971">
<rect width="156.051" height="538.757" fill="white" transform="translate(0.784668 0.0600586)"/>
</clipPath>
</defs>
</svg>
