<svg width="21" height="21" viewBox="0 0 21 21" fill="none" xmlns="http://www.w3.org/2000/svg">
<g clip-path="url(#clip0_218_179)">
<path d="M10.5509 19.8272C3.95955 19.8272 2.19846 12.9561 2.99451 8.45422C3.02916 8.25829 3.28599 8.20184 3.39791 8.36637C3.74447 8.87575 4.05287 9.61149 4.56385 9.54762C5.33185 9.45161 5.86392 2.67473 10.4157 0.767897C10.5601 0.70739 10.7113 0.822194 10.6954 0.977975C10.4703 3.1863 11.7962 6.34782 14.1452 6.34782C15.4918 6.34782 16.4131 5.27313 16.8735 4.19383C17.0134 3.86598 17.4924 3.90731 17.5726 4.25462C18.3941 7.8125 20.5902 19.8272 10.5509 19.8272Z" fill="#FF8F1F"/>
<path d="M8.24017 13.2018C8.39517 13.0716 8.63049 13.1609 8.66568 13.3603C8.74803 13.8268 9.01881 14.6286 9.90701 14.6286C10.9754 14.6286 11.7005 11.6886 11.8907 10.824C11.922 10.6817 12.0606 10.5851 12.2033 10.6141C14.8735 11.157 16.1717 19.8273 10.3009 19.8273C6.02697 19.8273 6.99521 14.2477 8.24017 13.2018ZM15.5363 3.81223C15.6304 3.07622 14.2868 5.0893 14.2868 5.0893C14.2868 5.0893 15.3112 5.57313 15.5363 3.81223ZM1.99826 14.7889C2.02658 14.4756 1.62349 13.6366 1.55213 13.9688C1.38131 14.7635 1.96994 15.1022 1.99826 14.7889Z" fill="#FFB636"/>
<path d="M12.7487 13.8958C12.6486 13.4782 12.2896 14.4481 12.3347 14.8432C12.3798 15.2382 12.9882 14.8948 12.7487 13.8958Z" fill="#FFD469"/>
</g>
<defs>
<clipPath id="clip0_218_179">
<rect width="20" height="20" fill="white" transform="translate(0.124695 0.278809)"/>
</clipPath>
</defs>
</svg>
