<svg width="21" height="20" viewBox="0 0 21 20" fill="none" xmlns="http://www.w3.org/2000/svg">
<path d="M18.29 1.25003H3.29004C2.59837 1.25003 2.04004 1.8167 2.04004 2.50837V17.5C2.04004 18.1917 2.59837 18.7584 3.29004 18.7584H18.29C18.9734 18.7584 19.54 18.1917 19.54 17.5V2.50003C19.54 1.80837 18.9734 1.2417 18.29 1.2417V1.25003ZM7.33171 16.25H4.73171V7.90003H7.33171V16.25ZM6.03171 6.75003C5.63388 6.75003 5.25235 6.592 4.97105 6.31069C4.68974 6.02939 4.53171 5.64786 4.53171 5.25003C4.53171 4.85221 4.68974 4.47068 4.97105 4.18937C5.25235 3.90807 5.63388 3.75003 6.03171 3.75003C6.42953 3.75003 6.81106 3.90807 7.09237 4.18937C7.37367 4.47068 7.53171 4.85221 7.53171 5.25003C7.53171 5.64786 7.37367 6.02939 7.09237 6.31069C6.81106 6.592 6.42953 6.75003 6.03171 6.75003ZM17.0484 16.25H14.465V12.1834C14.465 11.2167 14.44 9.97503 13.1067 9.97503C11.7567 9.97503 11.5484 11.025 11.5484 12.1167V16.25H8.96504V7.90003H11.4484V9.0417H11.4817C11.7313 8.61559 12.0917 8.26506 12.5245 8.02736C12.9574 7.78966 13.4465 7.67366 13.94 7.6917C16.565 7.6917 17.0484 9.42503 17.0484 11.675V16.25Z" fill="#A1A1AA"/>
</svg>
