<svg width="28" height="28" viewBox="0 0 28 28" fill="none" xmlns="http://www.w3.org/2000/svg">
<path d="M3.1543 3.2534V24.7456C3.15444 24.7922 3.16785 24.8378 3.19285 24.8765C3.21785 24.9153 3.25333 24.9455 3.29483 24.9634C3.33634 24.9814 3.38203 24.9862 3.42617 24.9773C3.4703 24.9684 3.51093 24.9462 3.54295 24.9135L14.334 14L3.54295 3.08551C3.51093 3.05277 3.4703 3.03057 3.42617 3.02168C3.38203 3.01279 3.33634 3.01761 3.29483 3.03554C3.25333 3.05347 3.21785 3.08371 3.19285 3.12247C3.16785 3.16122 3.15444 3.20677 3.1543 3.2534Z" fill="white"/>
<path d="M18.8586 9.51554L5.32804 1.78492L5.3196 1.78C5.08651 1.64875 4.86503 1.97578 5.05593 2.16609L15.6624 12.6836L18.8586 9.51554Z" fill="white"/>
<path d="M5.05697 25.8338C4.86502 26.0241 5.0865 26.3511 5.32064 26.2199L5.32908 26.215L18.8586 18.4843L15.6624 15.3152L5.05697 25.8338Z" fill="white"/>
<path d="M24.3208 12.6328L20.5424 10.4749L16.9897 14L20.5424 17.5235L24.3208 15.3672C25.3486 14.7782 25.3486 13.2218 24.3208 12.6328Z" fill="white"/>
</svg>
