<svg width="145" height="211" viewBox="0 0 145 211" fill="none" xmlns="http://www.w3.org/2000/svg">
<path d="M144.645 0.892985L142.67 3.79506L141.599 3.2009L143.575 0.298828M142.011 4.76107L140.035 7.66314L138.96 7.06898L140.94 4.16691M139.377 8.63319L137.401 11.5353L136.326 10.9411L138.302 8.03904M136.743 12.5013L134.767 15.4033L133.692 14.8092L135.667 11.9071M134.108 16.3694L132.133 19.2714L131.057 18.6773L133.033 15.7752M131.474 20.2415L129.498 23.1436L128.423 22.5494L130.399 19.6473M128.835 24.1096L126.86 27.0116L125.789 26.4175L127.764 23.5154M126.201 27.9776L124.225 30.8797L123.154 30.2856L125.13 27.3835M123.567 31.8498L121.591 34.7518L120.52 34.1577L122.496 31.2556M120.932 35.7179L118.957 38.6199L117.886 38.0258L119.862 35.1237M118.298 39.5859L116.322 42.488L115.252 41.8939L117.227 38.9918M115.664 43.4581L113.688 46.3601L112.617 45.766L114.593 42.8639M113.029 47.3261L111.054 50.2282L109.983 49.6341L111.959 46.732M110.395 51.1942L108.419 54.0963L107.349 53.5021L109.324 50.6001M107.761 55.0664L105.785 57.9684L104.71 57.3743L106.69 54.4722M105.127 58.9344L103.151 61.8365L102.076 61.2424L104.051 58.3403M102.492 62.8025L100.517 65.7046L99.4414 65.1104L101.417 62.2084M99.858 66.6747L97.8823 69.5767L96.8071 68.9826L98.7828 66.0805M97.2238 70.5427L95.2436 73.4448L94.1728 72.8506L96.1485 69.9486M94.585 74.4108L92.6093 77.3129L91.5385 76.7187L93.5143 73.8167M91.9507 78.2829L89.975 81.185L88.9043 80.5909L90.88 77.6888M89.3164 82.151L87.3407 85.0531L86.27 84.4589L88.2457 81.5569M86.6821 86.0191L84.7064 88.9212L83.6357 88.327L85.6114 85.4249M84.0478 89.8912L82.0721 92.7933L81.0014 92.1992L82.9771 89.2971M81.4136 93.7593L79.4378 96.6614L78.3671 96.0672L80.3428 93.1652M78.7793 97.6274L76.8036 100.529L75.7328 99.9353L77.7085 97.0332M76.145 101.5L74.1693 104.402L73.0985 103.807L75.0742 100.905M73.5107 105.368L71.535 108.27L70.4597 107.676L72.4399 104.773M70.8764 109.236L68.9007 112.138L67.8255 111.544L69.8012 108.642M68.2421 113.108L66.2664 116.01L65.1912 115.416L67.1669 112.514M65.6078 116.976L63.6321 119.878L62.5569 119.284L64.5326 116.382M62.9735 120.848L60.9933 123.75L59.9226 123.152L61.8983 120.25M60.3348 124.716L58.3591 127.618L57.2883 127.024L59.264 124.122M57.7005 128.584L55.7248 131.486L54.654 130.892L56.6297 127.99M55.0662 132.456L53.0905 135.358L52.0197 134.76L53.9954 131.858M52.4319 136.324L50.4562 139.226L49.3854 138.632L51.3612 135.73M49.7976 140.192L47.8219 143.095L46.7512 142.5L48.7269 139.598M47.1633 144.065L45.1876 146.967L44.1169 146.373L46.0926 143.47M44.529 147.933L42.5533 150.835L41.4826 150.241L43.4583 147.339M41.8947 151.801L39.919 154.703L38.8483 154.109L40.824 151.207M39.2605 155.673L37.2847 158.575L36.2095 157.981L38.1852 155.079M36.6262 159.541L34.6505 162.443L33.5752 161.849L35.551 158.947M33.9919 163.409L32.0162 166.311L30.9409 165.717L32.9167 162.815M31.3576 167.281L29.3819 170.183L28.3067 169.589L30.2824 166.687M28.7233 171.149L26.7431 174.051L25.6724 173.457L27.6481 170.555M26.0845 175.017L24.1088 177.919L23.0381 177.325L25.0138 174.423M23.4503 178.889L21.4745 181.792L20.4038 181.197L22.3795 178.295M20.816 182.758L18.8402 185.66L17.7695 185.065L19.7452 182.163M18.1817 186.626L16.206 189.528L15.1352 188.934L17.1109 186.031M15.5474 190.498L13.5717 193.4L12.5009 192.806L14.4766 189.904M12.9131 194.366L10.9374 197.268L9.86664 196.674L11.8424 193.772M10.2788 198.234L8.30309 201.136L7.23235 200.542L9.20807 197.64M7.64452 202.106L5.6688 205.008L4.59358 204.414L6.57378 201.512M5.01023 205.974L3.03452 208.876L1.9593 208.282L3.93501 205.38M2.37594 209.842L1.66809 210.881L0.597351 210.287L1.30072 209.248" fill="url(#paint0_linear_218_2734)"/>
<defs>
<linearGradient id="paint0_linear_218_2734" x1="0.597351" y1="105.59" x2="144.645" y2="105.59" gradientUnits="userSpaceOnUse">
<stop stop-color="#5991FF" stop-opacity="0"/>
<stop offset="0.5" stop-color="#5991FF" stop-opacity="0.9"/>
<stop offset="1" stop-color="#5991FF" stop-opacity="0"/>
</linearGradient>
</defs>
</svg>
