<svg width="306" height="75" viewBox="0 0 306 75" fill="none" xmlns="http://www.w3.org/2000/svg">
<path d="M305.13 74.9751L301.483 74.094L301.806 72.9986L305.452 73.8797M300.265 73.8029L296.618 72.9218L296.945 71.8265L300.592 72.7036M295.404 72.6268L291.757 71.7497L292.084 70.6503L295.731 71.5314M290.543 71.4546L286.896 70.5775L287.219 69.4781L290.865 70.3593M285.677 70.2825L282.031 69.4013L282.358 68.306L286.004 69.1871M280.816 69.1103L277.17 68.2292L277.492 67.1338L281.139 68.0109M275.951 67.9341L272.304 67.057L272.631 65.9577L276.278 66.8388M271.09 66.762L267.443 65.8849L267.77 64.7855L271.417 65.6666M266.229 65.5898L262.583 64.7087L262.905 63.6134L266.552 64.4945M261.364 64.4177L257.717 63.5366L258.044 62.4412L261.691 63.3183M256.503 63.2415L252.856 62.3644L253.179 61.265L256.826 62.1462M251.638 62.0694L247.991 61.1923L248.318 60.0929L251.965 60.974M246.777 60.8972L243.13 60.0161L243.457 58.9207L247.104 59.8019M241.916 59.7251L238.269 58.8439L238.592 57.7486L242.238 58.6257M237.051 58.5489L233.404 57.6718L233.731 56.5724L237.378 57.4535M232.19 57.3767L228.543 56.4996L228.865 55.4003L232.512 56.2814M227.324 56.2046L223.678 55.3235L224.005 54.2281L227.651 55.1092M222.463 55.0324L218.817 54.1513L219.144 53.056L222.79 53.9331M217.603 53.8563L213.956 52.9792L214.278 51.8798L217.925 52.7609M212.737 52.6841L209.09 51.807L209.417 50.7076L213.064 51.5888M207.876 51.512L204.229 50.6308L204.552 49.5355L208.199 50.4166M203.011 50.3398L199.364 49.4587L199.691 48.3633L203.338 49.2404M198.15 49.1636L194.503 48.2865L194.83 47.1871L198.477 48.0683M193.289 47.9915L189.642 47.1144L189.965 46.015L193.612 46.8961M188.424 46.8193L184.777 45.9382L185.104 44.8429L188.751 45.724M183.563 45.6472L179.916 44.7661L180.239 43.6707L183.885 44.5478M178.702 44.471L175.051 43.5939L175.378 42.4945L179.025 43.3757M173.837 43.2989L170.19 42.4218L170.517 41.3224L174.164 42.2035M168.976 42.1267L165.329 41.2456L165.651 40.1502L169.298 41.0314M164.11 40.9546L160.464 40.0734L160.791 38.9781L164.437 39.8552M159.249 39.7824L155.603 38.9013L155.925 37.8019L159.572 38.683M154.389 38.6062L150.737 37.7291L151.064 36.6297L154.711 37.5109M149.523 37.4341L145.876 36.553L146.203 35.4576L149.85 36.3387M144.662 36.2619L141.016 35.3808L141.338 34.2855L144.985 35.1625M139.797 35.0898L136.15 34.2087L136.477 33.1093L140.124 33.9904M134.936 33.9136L131.289 33.0365L131.612 31.9371L135.259 32.8182M130.075 32.7415L126.424 31.8603L126.751 30.765L130.398 31.6461M125.21 31.5693L121.563 30.6882L121.89 29.5928L125.537 30.4699M120.349 30.3972L116.702 29.516L117.025 28.4166L120.671 29.2978M115.484 29.221L111.837 28.3439L112.164 27.2445L115.811 28.1256M110.623 28.0488L106.976 27.1677L107.298 26.0723L110.95 26.9535M105.762 26.8767L102.11 25.9956L102.438 24.9002L106.084 25.7773M100.896 25.7045L97.2496 24.8234L97.5766 23.724L101.223 24.6051M96.0355 24.5283L92.3887 23.6513L92.7113 22.5519L96.3581 23.433M91.1701 23.3562L87.5233 22.4751L87.8504 21.3797L91.4972 22.2609M86.3092 22.1841L82.6625 21.3029L82.985 20.2076L86.6363 21.0847M81.4483 21.0119L77.8016 20.1308L78.1241 19.0354L81.7709 19.9125M76.583 19.8357L72.9362 18.9586L73.2632 17.8592L76.91 18.7404M71.7221 18.6636L68.0753 17.7824L68.3979 16.6871L72.0447 17.5682M66.8567 17.4914L63.2099 16.6103L63.537 15.5149L67.1838 16.392M61.9958 16.3193L58.349 15.4382L58.6716 14.3428L62.3229 15.2199M57.1349 15.1431L53.4882 14.266L53.8107 13.1666L57.4575 14.0477M52.2696 13.9709L48.6228 13.0898L48.9498 11.9945L52.5966 12.8756M47.4087 12.7988L43.7619 11.9177L44.0845 10.8223L47.7313 11.6994M42.5433 11.6267L38.8965 10.7455L39.2236 9.65017L42.8704 10.5273M37.6824 10.4505L34.0356 9.57338L34.3582 8.47399L38.0095 9.35512M32.8215 9.27832L29.1748 8.39719L29.4973 7.30184L33.1441 8.18297M27.9562 8.10617L24.3094 7.22504L24.6364 6.12969L28.2832 7.00678M23.0953 6.93403L19.4485 6.0529L19.7711 4.95755L23.4178 5.83464M18.2299 5.75784L14.5831 4.88075L14.9102 3.78136L18.557 4.66249M13.369 4.58569L9.72223 3.70456L10.0493 2.60921L13.6961 3.49034M8.50813 3.41355L4.86135 2.53242L5.18391 1.43707L8.8307 2.31415M3.64276 2.2414L0.865112 1.57045L1.19216 0.475098L3.96981 1.14201" fill="url(#paint0_linear_218_2733)"/>
<defs>
<linearGradient id="paint0_linear_218_2733" x1="0.865112" y1="37.7251" x2="305.452" y2="37.7251" gradientUnits="userSpaceOnUse">
<stop stop-color="#5991FF" stop-opacity="0"/>
<stop offset="0.5" stop-color="#5991FF" stop-opacity="0.9"/>
<stop offset="1" stop-color="#5991FF" stop-opacity="0"/>
</linearGradient>
</defs>
</svg>
