<svg width="286" height="84" viewBox="0 0 286 84" fill="none" xmlns="http://www.w3.org/2000/svg">
<path d="M285.642 1.39217L282.044 2.42689L281.663 1.34367L285.261 0.312988M280.843 2.77045L277.246 3.80518L276.865 2.72195L280.463 1.69127M276.05 4.14874L272.452 5.18346L272.071 4.10023L275.665 3.06955M271.252 5.52702L267.654 6.56174L267.273 5.47852L270.871 4.44784M266.458 6.9053L262.86 7.94002L262.475 6.8568L266.073 5.82612M261.66 8.28358L258.062 9.31831L257.681 8.23508L261.279 7.2044M256.866 9.66187L253.269 10.6966L252.883 9.61336L256.481 8.58268M252.068 11.0401L248.47 12.0749L248.09 10.9916L251.687 9.96096M247.27 12.4184L243.677 13.4532L243.291 12.3699L246.889 11.3392M242.476 13.7967L238.879 14.8314L238.498 13.7482L242.095 12.7175M237.678 15.175L234.08 16.2097L233.7 15.1265L237.297 14.0958M232.884 16.5533L229.287 17.588L228.906 16.5048L232.503 15.4741M228.086 17.9316L224.489 18.9663L224.108 17.8831L227.705 16.8524M223.292 19.3098L219.695 20.3446L219.314 19.2613L222.912 18.2307M218.494 20.6881L214.897 21.7228L214.516 20.6396L218.113 19.6089M213.7 22.0664L210.103 23.1011L209.722 22.0179L213.315 20.9872M208.902 23.4447L205.305 24.4794L204.924 23.3962L208.522 22.3655M204.109 24.823L200.511 25.8577L200.126 24.7745L203.723 23.7438M199.31 26.2013L195.713 27.236L195.332 26.1528L198.93 25.1221M194.517 27.5795L190.919 28.6143L190.534 27.531L194.131 26.5004M189.719 28.9578L186.121 29.9925L185.74 28.9093L189.338 27.8786M184.92 30.3361L181.327 31.3708L180.942 30.2876L184.54 29.2569M180.127 31.7144L176.529 32.7491L176.148 31.6659L179.746 30.6352M175.329 33.0927L171.731 34.1274L171.35 33.0442L174.948 32.0135M170.535 34.4709L166.937 35.5057L166.557 34.4224L170.154 33.3918M165.737 35.8492L162.139 36.884L161.758 35.8007L165.356 34.77M160.943 37.2275L157.346 38.2622L156.965 37.179L160.562 36.1483M156.145 38.6058L152.547 39.6405L152.167 38.5573L155.764 37.5266M151.351 39.9841L147.754 41.0188L147.373 39.9356L150.966 38.9049M146.553 41.3624L142.956 42.3971L142.575 41.3139L146.172 40.2832M141.759 42.7406L138.162 43.7754L137.777 42.6921L141.374 41.6615M136.961 44.1189L133.364 45.1536L132.983 44.0704L136.58 43.0397M132.167 45.4972L128.57 46.5319L128.185 45.4487L131.782 44.418M127.369 46.8755L123.772 47.9102L123.391 46.827L126.989 45.7963M122.571 48.2538L118.978 49.2885L118.593 48.2053L122.19 47.1746M117.777 49.6321L114.18 50.6668L113.799 49.5835L117.397 48.5529M112.979 51.0103L109.382 52.0451L109.001 50.9618L112.598 49.9312M108.186 52.3886L104.588 53.4233L104.207 52.3401L107.805 51.3094M103.387 53.7669L99.7899 54.8016L99.4091 53.7184L103.007 52.6877M98.5938 55.1452L94.9962 56.1799L94.6154 55.0967L98.2129 54.066M93.7956 56.5235L90.1981 57.5582L89.8173 56.475L93.4148 55.4443M89.0019 57.9017L85.4044 58.9365L85.0236 57.8532L88.6166 56.8226M84.2037 59.28L80.6062 60.3148L80.2254 59.2315L83.8229 58.2008M79.41 60.6583L75.8125 61.693L75.4272 60.6098L79.0247 59.5791M74.6119 62.0366L71.0144 63.0713L70.6336 61.9881L74.2311 60.9574M69.8182 63.4149L66.2207 64.4496L65.8354 63.3664L69.4329 62.3357M65.02 64.7932L61.4225 65.8279L61.0417 64.7447L64.6392 63.714M60.2218 66.1714L56.6288 67.2062L56.2435 66.1229L59.841 65.0923M55.4282 67.5497L51.8307 68.5844L51.4498 67.5012L55.0474 66.4705M50.63 68.928L47.0325 69.9627L46.6517 68.8795L50.2492 67.8488M45.8363 70.3063L42.2388 71.341L41.858 70.2578L45.4555 69.2271M41.0381 71.6846L37.4406 72.7193L37.0598 71.6361L40.6573 70.6054M36.2444 73.0629L32.6469 74.0976L32.2661 73.0144L35.8636 71.9837M31.4463 74.4411L27.8488 75.4759L27.468 74.3926L31.0655 73.362M26.6526 75.8194L23.0551 76.8541L22.6743 75.7709L26.2673 74.7402M21.8544 77.1977L18.2569 78.2324L17.8761 77.1492L21.4736 76.1185M17.0607 78.576L13.4632 79.6107L13.0779 78.5275L16.6754 77.4968M12.2626 79.9543L8.66506 80.989L8.28425 79.9058L11.8818 78.8751M7.46888 81.3325L3.87137 82.3673L3.48609 81.284L7.08359 80.2534M2.67071 82.7108L0.753236 83.2605L0.372429 82.1813L2.2899 81.6316" fill="#4285F4"/>
</svg>
