<svg width="17" height="16" viewBox="0 0 17 16" fill="none" xmlns="http://www.w3.org/2000/svg">
<path d="M16.5463 4.06028C16.2832 3.45874 15.9039 2.91364 15.4295 2.45548C14.9548 1.99595 14.395 1.63077 13.7807 1.37979C13.1438 1.11851 12.4606 0.984774 11.7709 0.986342C10.8032 0.986342 9.8591 1.24799 9.03866 1.74223C8.84238 1.86046 8.65591 1.99031 8.47926 2.1318C8.30261 1.99031 8.11615 1.86046 7.91987 1.74223C7.09943 1.24799 6.15533 0.986342 5.18767 0.986342C4.49088 0.986342 3.81569 1.11814 3.17778 1.37979C2.56147 1.63175 2.006 1.99419 1.52904 2.45548C1.05404 2.91312 0.674596 3.45836 0.412215 4.06028C0.139388 4.68631 3.05176e-05 5.3511 3.05176e-05 6.03528C3.05176e-05 6.68069 0.1335 7.35323 0.398476 8.03741C0.620271 8.60917 0.938242 9.20225 1.34454 9.80114C1.98833 10.7489 2.87355 11.7374 3.97271 12.7394C5.79417 14.4004 7.59797 15.5478 7.67452 15.5943L8.1397 15.8889C8.34579 16.0188 8.61077 16.0188 8.81686 15.8889L9.28204 15.5943C9.35859 15.5459 11.1604 14.4004 12.9839 12.7394C14.083 11.7374 14.9682 10.7489 15.612 9.80114C16.0183 9.20225 16.3383 8.60917 16.5581 8.03741C16.8231 7.35323 16.9565 6.68069 16.9565 6.03528C16.9585 5.3511 16.8191 4.68631 16.5463 4.06028ZM8.47926 14.3558C8.47926 14.3558 1.49175 9.93488 1.49175 6.03528C1.49175 4.06028 3.14638 2.45935 5.18767 2.45935C6.62247 2.45935 7.86687 3.25012 8.47926 4.40527C9.09165 3.25012 10.3361 2.45935 11.7709 2.45935C13.8122 2.45935 15.4668 4.06028 15.4668 6.03528C15.4668 9.93488 8.47926 14.3558 8.47926 14.3558Z" fill="white"/>
</svg>
