<svg width="260" height="170" viewBox="0 0 260 170" fill="none" xmlns="http://www.w3.org/2000/svg">
<path d="M259.094 1.29788L256.034 3.29457L255.299 2.37302L258.359 0.380371M255.017 3.95744L251.957 5.95413L251.218 5.03258L254.278 3.03993M250.936 6.617L247.876 8.61369L247.137 7.69214L250.196 5.69949M246.854 9.27656L243.794 11.2732L243.06 10.3517L246.12 8.35501M242.773 11.9361L239.713 13.9328L238.978 13.0113L242.038 11.0146M238.696 14.5957L235.632 16.5883L234.897 15.6708L237.957 13.6741M234.615 17.2552L231.555 19.2479L230.816 18.3304L233.875 16.3337M230.533 19.9148L227.473 21.9074L226.734 20.9859L229.794 18.9932M226.452 22.5744L223.392 24.567L222.657 23.6455L225.717 21.6528M222.371 25.2339L219.311 27.2266L218.576 26.305L221.636 24.3124M218.294 27.8894L215.234 29.8861L214.495 28.9646L217.555 26.9719M214.212 30.549L211.152 32.5457L210.413 31.6241L213.473 29.6315M210.131 33.2086L207.071 35.2052L206.336 34.2837L209.396 32.291M206.05 35.8681L202.99 37.8648L202.255 36.9433L205.315 34.9466M201.973 38.5277L198.908 40.5203L198.174 39.6028L201.234 37.6061M197.891 41.1872L194.832 43.1799L194.092 42.2624L197.152 40.2657M193.81 43.8468L190.75 45.8394L190.011 44.9219L193.075 42.9252M189.729 46.5064L186.669 48.499L185.934 47.5774L188.994 45.5848M185.647 49.1659L182.587 51.1586L181.853 50.237L184.913 48.2444M181.57 51.8255L178.511 53.8181L177.771 52.8966L180.831 50.9039M177.489 54.481L174.429 56.4777L173.69 55.5561L176.75 53.5635M173.408 57.1405L170.348 59.1372L169.613 58.2157L172.673 56.223M169.326 59.8001L166.267 61.7968L165.532 60.8753L168.592 58.8826M165.25 62.4597L162.19 64.4564L161.45 63.5348L164.51 61.5381M161.168 65.1192L158.108 67.1119L157.369 66.1944L160.429 64.1977M157.087 67.7788L154.027 69.7714L153.292 68.8539L156.352 66.8572M153.005 70.4383L149.946 72.431L149.211 71.5135L152.271 69.5168M148.929 73.0979L145.864 75.0906L145.13 74.169L148.189 72.1764M144.847 75.7575L141.787 77.7501L141.048 76.8286L144.108 74.8359M140.766 78.413L137.706 80.4097L136.967 79.4881L140.031 77.4955M136.685 81.0725L133.625 83.0692L132.89 82.1477L135.95 80.155M132.603 83.7321L129.543 85.7288L128.809 84.8072L131.868 82.8146M128.526 86.3917L125.466 88.3884L124.727 87.4668L127.787 85.4701M124.445 89.0512L121.385 91.0439L120.646 90.1264L123.706 88.1297M120.364 91.7108L117.304 93.7034L116.569 92.7859L119.629 90.7892M116.282 94.3703L113.222 96.363L112.488 95.4455L115.548 93.4488M112.205 97.0299L109.145 99.0226L108.406 98.101L111.466 96.1084M108.124 99.6895L105.064 101.682L104.325 100.761L107.385 98.7679M104.043 102.349L100.983 104.342L100.248 103.42L103.308 101.427M99.9613 105.005L96.9014 107.001L96.1667 106.08L99.2266 104.087M95.8844 107.664L92.8201 109.661L92.0853 108.739L95.1452 106.747M91.8031 110.324L88.7432 112.32L88.004 111.399L91.0639 109.406M87.7217 112.983L84.6618 114.98L83.9226 114.058L86.9825 112.062M83.6404 115.643L80.5805 117.635L79.8458 116.718L82.9056 114.721M79.559 118.302L76.4991 120.295L75.7644 119.377L78.8243 117.381M75.4822 120.962L72.4223 122.955L71.683 122.037L74.7429 120.04M71.4008 123.621L68.3409 125.614L67.6017 124.693L70.6616 122.7M67.3194 126.281L64.2595 128.274L63.5248 127.352L66.5847 125.359M63.2381 128.937L60.1782 130.933L59.4435 130.012L62.5034 128.019M59.1612 131.596L56.0968 133.593L55.3621 132.671L58.422 130.679M55.0799 134.256L52.02 136.252L51.2808 135.331L54.3406 133.338M50.9985 136.915L47.9386 138.912L47.1994 137.99L50.2638 135.994M46.9171 139.575L43.8573 141.571L43.1225 140.65L46.1824 138.653M42.8358 142.234L39.7759 144.227L39.0412 143.309L42.1011 141.313M38.7589 144.894L35.699 146.887L34.9598 145.969L38.0197 143.972M34.6776 147.553L31.6177 149.546L30.8785 148.625L33.9384 146.632M30.5962 150.213L27.5363 152.206L26.8016 151.284L29.8615 149.291M26.5149 152.873L23.455 154.865L22.7202 153.944L25.7801 151.951M22.438 155.528L19.3781 157.525L18.6389 156.603L21.6988 154.611M18.3566 158.188L15.2967 160.184L14.5575 159.263L17.6174 157.27M14.2753 160.847L11.2154 162.844L10.4806 161.922L13.5405 159.93M10.1939 163.507L7.13402 165.503L6.39929 164.582L9.45918 162.585M6.11704 166.166L3.05267 168.159L2.31793 167.241L5.37783 165.245M2.03569 168.826L1.66384 169.064L0.929108 168.147L1.29647 167.904" fill="url(#paint0_linear_218_2736)"/>
<defs>
<linearGradient id="paint0_linear_218_2736" x1="0.929108" y1="84.7224" x2="259.094" y2="84.7224" gradientUnits="userSpaceOnUse">
<stop stop-color="#5991FF" stop-opacity="0"/>
<stop offset="0.5" stop-color="#5991FF" stop-opacity="0.9"/>
<stop offset="1" stop-color="#5991FF" stop-opacity="0"/>
</linearGradient>
</defs>
</svg>
